<svg id="Calque_1" data-name="Calque 1" xmlns="http://www.w3.org/2000/svg" viewBox="0 0 140 82"><defs><style>.cls-1,.cls-7{fill:#5f6e78;}.cls-2{fill:#0069a9;}.cls-3{fill:#64b8e1;}.cls-4{fill:#96b522;}.cls-5{fill:#fec800;}.cls-6{fill:#fff;}.cls-7{opacity:0.4;}</style></defs><title>logo_CAUE</title><path class="cls-1" d="M479.86,311.56a2.27,2.27,0,0,1,1-1.38,3,3,0,0,1,2.29,2.24,3.4,3.4,0,0,1,3.29-2.24,6.46,6.46,0,0,1,1.33.15,4.58,4.58,0,0,1-.63,2.46,5.41,5.41,0,0,0-1-.13,3,3,0,0,0-2.69,1.91v8.2a8.44,8.44,0,0,1-2.59,0v-8.62A3.39,3.39,0,0,0,479.86,311.56Z" transform="translate(-357.01 -247.3)"/><path class="cls-1" d="M492.23,302.89h-21.6v26.39H497v-21.6Zm4.22,25.82H471.19V303.45H492l4.45,4.45v20.81Z" transform="translate(-357.01 -247.3)"/><path class="cls-1" d="M484,265l3-10.31a5.59,5.59,0,0,1,1.12-.1,3.26,3.26,0,0,1,1.17.2l0.08,0.1q-1.89,6.33-3.87,12.22a10.24,10.24,0,0,1-1.71.13,2.49,2.49,0,0,1-1.37-.28,2.34,2.34,0,0,1-.69-1.16l-3.47-10.91a3.65,3.65,0,0,1,1.48-.38,1.32,1.32,0,0,1,1.41,1.11l1.68,5.53q0.48,1.51,1,3.64A0.22,0.22,0,0,0,484,265Z" transform="translate(-357.01 -247.3)"/><path class="cls-1" d="M489,293.81a2.41,2.41,0,0,1-1,1.33,2.51,2.51,0,0,1-2-1.56,5.31,5.31,0,0,1-3.67,1.71,4.32,4.32,0,0,1-1.67-.3,3.55,3.55,0,0,1-1.21-.82,3.32,3.32,0,0,1-.73-1.18,4.08,4.08,0,0,1-.24-1.39,3.75,3.75,0,0,1,1.32-3.12,5.45,5.45,0,0,1,3.51-1.06c0.42,0,.83,0,1.23,0a11,11,0,0,1,1.18.14v-1q0-2.25-2.06-2.26a11.78,11.78,0,0,0-3.95,1,2.41,2.41,0,0,1-.75-1.88,12.54,12.54,0,0,1,5.2-1.16,3.73,3.73,0,0,1,4.12,4.2v5.15A2.75,2.75,0,0,0,489,293.81Zm-6.23-.58a4,4,0,0,0,3-1.51v-2.39l-1.06-.07-1.15,0a2.63,2.63,0,0,0-1.8.57,1.9,1.9,0,0,0-.64,1.49,2.07,2.07,0,0,0,.45,1.42A1.55,1.55,0,0,0,482.76,293.23Z" transform="translate(-357.01 -247.3)"/><polygon class="cls-2" points="0 0.01 0 40.36 40.35 40.36 40.35 7.32 33.04 0.01 0 0.01"/><polygon class="cls-3" points="41.67 0.01 41.67 40.36 82.02 40.36 82.02 7.32 74.7 0.01 41.67 0.01"/><polygon class="cls-4" points="41.67 41.65 41.67 82 82.02 82 82.02 48.97 74.7 41.65 41.67 41.65"/><path class="cls-5" d="M390,289H357v29.47c0,6.58,4.31,10.89,10.92,10.89h29.43v-33Z" transform="translate(-357.01 -247.3)"/><path class="cls-6" d="M380.85,265.39V265q0-4.25-3.29-4.25a3,3,0,0,0-2.77,1.73,10.77,10.77,0,0,0-1,5.15q0,6.47,4.24,6.47a7.61,7.61,0,0,0,4.53-1.88,3.35,3.35,0,0,1,1,1,3.73,3.73,0,0,1,.64,1.32,9.17,9.17,0,0,1-6.73,2.78,7.52,7.52,0,0,1-3.44-.73,6.67,6.67,0,0,1-2.41-2,9.14,9.14,0,0,1-1.43-3.16,16.38,16.38,0,0,1-.47-4.06,12.1,12.1,0,0,1,.64-4.08,9,9,0,0,1,1.71-3,7.38,7.38,0,0,1,2.48-1.84,7.15,7.15,0,0,1,3-.64,7.91,7.91,0,0,1,2.88.49,7,7,0,0,1,2.14,1.28,5.47,5.47,0,0,1,1.35,1.82,5,5,0,0,1,.47,2.09q0,2.14-2,2.14A7.26,7.26,0,0,1,380.85,265.39Z" transform="translate(-357.01 -247.3)"/><path class="cls-6" d="M426.71,275a3.59,3.59,0,0,1-1.47,2,3.77,3.77,0,0,1-3-2.33,8,8,0,0,1-5.49,2.56,6.41,6.41,0,0,1-2.5-.45,5.27,5.27,0,0,1-1.8-1.22,4.94,4.94,0,0,1-1.09-1.77,6.13,6.13,0,0,1-.36-2.09,5.62,5.62,0,0,1,2-4.66,8.15,8.15,0,0,1,5.25-1.58q0.94,0,1.84.06a16.51,16.51,0,0,1,1.77.21v-1.48q0-3.38-3.08-3.38a17.6,17.6,0,0,0-5.91,1.47,3.62,3.62,0,0,1-1.13-2.82,18.78,18.78,0,0,1,7.78-1.73,5.57,5.57,0,0,1,6.17,6.28v7.71A4.11,4.11,0,0,0,426.71,275Zm-9.33-.87a5.93,5.93,0,0,0,4.44-2.26v-3.57q-0.75-.07-1.58-0.11t-1.73,0a3.93,3.93,0,0,0-2.69.85,2.84,2.84,0,0,0-1,2.24,3.11,3.11,0,0,0,.68,2.12A2.33,2.33,0,0,0,417.38,274.14Z" transform="translate(-357.01 -247.3)"/><path class="cls-6" d="M369.47,312.58v-8.76a7,7,0,0,0-.64-3.38,3.57,3.57,0,0,1,2.44-.83q2.07,0,2.07,2.44v9.57a5.76,5.76,0,0,0,.49,2.78,1.84,1.84,0,0,0,1.73.83,5.75,5.75,0,0,0,2.52-.62,8,8,0,0,0,2.29-1.67V299.83a13.59,13.59,0,0,1,1.92-.15,15.24,15.24,0,0,1,2,.15v13.31q0,2.64,1.05,3.58a3.22,3.22,0,0,1-1.47,2,3.83,3.83,0,0,1-3.16-2.71,9,9,0,0,1-6.28,2.78,4.32,4.32,0,0,1-3.72-1.69A7.39,7.39,0,0,1,369.47,312.58Z" transform="translate(-357.01 -247.3)"/><path class="cls-6" d="M426.29,310.36H415.24a7.34,7.34,0,0,0,1.11,4,3.86,3.86,0,0,0,3.37,1.39,9.66,9.66,0,0,0,2.42-.34,12.11,12.11,0,0,0,2.69-1.09,4.32,4.32,0,0,1,1.24,2.48A12,12,0,0,1,419,318.9a7.83,7.83,0,0,1-3.61-.75,6.44,6.44,0,0,1-2.39-2.07,8.8,8.8,0,0,1-1.33-3.14,17.72,17.72,0,0,1-.42-3.93,13.57,13.57,0,0,1,.53-3.85,9.37,9.37,0,0,1,1.5-3.06,7,7,0,0,1,2.43-2,7.1,7.1,0,0,1,3.25-.73,8.14,8.14,0,0,1,3.22.6,6.81,6.81,0,0,1,2.39,1.67,7.21,7.21,0,0,1,1.49,2.56,9.91,9.91,0,0,1,.51,3.22c0,0.5,0,1-.05,1.48A12.7,12.7,0,0,1,426.29,310.36Zm-7.22-8.12q-3.57,0-3.84,5.3h7.6V307a6,6,0,0,0-.92-3.48A3.21,3.21,0,0,0,419.07,302.23Z" transform="translate(-357.01 -247.3)"/><path class="cls-1" d="M445,327.12c0,0.65.63,1,1.88,1s1.77-.42,1.77-1.16a2.11,2.11,0,0,0-.51-1.24,1.12,1.12,0,0,1,.63-0.45,2.62,2.62,0,0,1,.76,1.86c0,1.47-1.22,2.09-2.64,2.09-1.9,0-2.7-1.07-2.7-2.14a1.68,1.68,0,0,1,1.55-1.86,0.5,0.5,0,0,1,.59.53,2,2,0,0,1,0,.44C445.6,326.2,445,326.37,445,327.12Z" transform="translate(-357.01 -247.3)"/><path class="cls-1" d="M448.95,320.54a2.24,2.24,0,0,1,0,3,3.4,3.4,0,0,1-4.21,0,2.24,2.24,0,0,1,0-3A3.4,3.4,0,0,1,448.95,320.54ZM448.7,322c0-.88-0.9-1.13-1.86-1.13S445,321.15,445,322s0.91,1.12,1.86,1.12S448.7,322.91,448.7,322Z" transform="translate(-357.01 -247.3)"/><path class="cls-1" d="M448.29,314.3a2,2,0,0,0,.93-0.17,1.13,1.13,0,0,1,.23.67,0.54,0.54,0,0,1-.68.56h-2.61c-0.69,0-1,.14-1,0.64a1.88,1.88,0,0,0,.64,1.29h3.56a2.71,2.71,0,0,1,0,.52,2.82,2.82,0,0,1,0,.53h-5l-0.06-.06v-0.4a0.56,0.56,0,0,1,.64-0.59,2.47,2.47,0,0,1-.69-1.63,1.42,1.42,0,0,1,1.68-1.36h2.39Z" transform="translate(-357.01 -247.3)"/><path class="cls-1" d="M448.26,312.64a3.23,3.23,0,0,0,.45-1.44,0.77,0.77,0,0,0-.64-0.92,0.82,0.82,0,0,0-.7.65l-0.22.57a1.63,1.63,0,0,1-1.47,1.3,1.6,1.6,0,0,1-1.52-1.81,4.6,4.6,0,0,1,.37-1.68,1.12,1.12,0,0,1,.78.32A3.38,3.38,0,0,0,445,311a0.64,0.64,0,0,0,.59.74,0.73,0.73,0,0,0,.63-0.64l0.24-.62a1.67,1.67,0,0,1,1.54-1.3c1,0,1.53.81,1.53,2A3.64,3.64,0,0,1,449,313,1.21,1.21,0,0,1,448.26,312.64Z" transform="translate(-357.01 -247.3)"/><path class="cls-1" d="M447.18,307.05c0.85,0,1.47-.32,1.47-1.19a3.09,3.09,0,0,0-.39-1.43,1.37,1.37,0,0,1,.68-0.34,3.45,3.45,0,0,1,.57,1.93c0,1.62-1.27,2.11-2.66,2.11s-2.68-.72-2.68-2.14a2,2,0,0,1,2.2-2,4,4,0,0,1,.81.07v3Zm-0.77,0V305h-0.13a1.09,1.09,0,0,0-1.31,1C445,306.66,445.51,307,446.41,307.05Z" transform="translate(-357.01 -247.3)"/><path class="cls-1" d="M442.44,302.52a1.28,1.28,0,0,1-.12-0.56,1.31,1.31,0,0,1,.12-0.56,1.16,1.16,0,0,1,.46-0.09,1.11,1.11,0,0,1,.45.09,1.15,1.15,0,0,1,.13.56A0.69,0.69,0,0,1,442.44,302.52Zm6.94-1.28a2.71,2.71,0,0,1,0,.52,2.75,2.75,0,0,1,0,.53h-3.76c-0.37,0-.53.11-0.53,0.45v0.11a1.62,1.62,0,0,1-.38.05,1.87,1.87,0,0,1-.39-0.05,5.82,5.82,0,0,1,0-.65v-0.14a0.81,0.81,0,0,1,.91-0.83h4.19Z" transform="translate(-357.01 -247.3)"/><path class="cls-1" d="M448.59,297.62a1.66,1.66,0,0,1,.53-0.09,0.86,0.86,0,0,1,.23,0,5.76,5.76,0,0,1,.07.87,0.92,0.92,0,0,1-1.06,1H441.9l-0.06-.07V299c0-.44.21-0.57,0.68-0.57h5.61a0.38,0.38,0,0,0,.46-0.4v-0.38Z" transform="translate(-357.01 -247.3)"/><path class="cls-7" d="M442.37,293.54a3.15,3.15,0,0,1,0-.54,3.23,3.23,0,0,1,0-.54h7a3.23,3.23,0,0,1,0,.54,3.15,3.15,0,0,1,0,.54h-7Z" transform="translate(-357.01 -247.3)"/><path class="cls-1" d="M449.45,284.45a1.06,1.06,0,0,1-.64.82,2.24,2.24,0,0,1,.7,1.55,1.46,1.46,0,0,1-1.51,1.52,1.7,1.7,0,0,1-1.7-2,7,7,0,0,1,.07-1H446a0.77,0.77,0,0,0-.91.84,4.74,4.74,0,0,0,.39,1.61,1.24,1.24,0,0,1-.77.31,5.79,5.79,0,0,1-.47-2.12,1.53,1.53,0,0,1,1.71-1.68H448a1.07,1.07,0,0,0,.88-0.29A1.07,1.07,0,0,1,449.45,284.45Zm-1.4.93h-1c0,0.31,0,.64,0,0.92a0.85,0.85,0,0,0,.88,1,0.68,0.68,0,0,0,.75-0.69A1.7,1.7,0,0,0,448.06,285.38Z" transform="translate(-357.01 -247.3)"/><path class="cls-1" d="M444.24,282.44a1.21,1.21,0,0,1,.91-0.93,1.41,1.41,0,0,1-.91-1.34,2.52,2.52,0,0,1,.06-0.54,2.06,2.06,0,0,1,1,.26,1.87,1.87,0,0,0-.05.42,1.22,1.22,0,0,0,.78,1.1h3.35a2.7,2.7,0,0,1,0,.52,2.75,2.75,0,0,1,0,.53h-3.52a1.44,1.44,0,0,0-1.06.38A1.09,1.09,0,0,1,444.24,282.44Z" transform="translate(-357.01 -247.3)"/><path class="cls-1" d="M445,277c0,0.65.63,1,1.88,1s1.77-.42,1.77-1.16a2.1,2.1,0,0,0-.51-1.24,1.12,1.12,0,0,1,.63-0.45,2.62,2.62,0,0,1,.76,1.86c0,1.47-1.22,2.09-2.64,2.09-1.9,0-2.7-1.07-2.7-2.14a1.68,1.68,0,0,1,1.55-1.86,0.5,0.5,0,0,1,.59.53,2,2,0,0,1,0,.44C445.6,276,445,276.22,445,277Z" transform="translate(-357.01 -247.3)"/><path class="cls-1" d="M448.29,269.66a2.14,2.14,0,0,0,.93-0.16,1.1,1.1,0,0,1,.23.66,0.54,0.54,0,0,1-.68.56h-2.61c-0.69,0-1,.14-1,0.65a1.92,1.92,0,0,0,.64,1.28h3.56a3.3,3.3,0,0,1,0,1H441.9l-0.06-.06v-0.41c0-.44.21-0.56,0.68-0.56h2.39a2.49,2.49,0,0,1-.68-1.62,1.42,1.42,0,0,1,1.68-1.36h2.38Z" transform="translate(-357.01 -247.3)"/><path class="cls-1" d="M442.44,268a1.27,1.27,0,0,1-.12-0.56,1.31,1.31,0,0,1,.12-0.56,1.16,1.16,0,0,1,.46-0.09,1.11,1.11,0,0,1,.45.09,1.15,1.15,0,0,1,.13.56A0.69,0.69,0,0,1,442.44,268Zm6.94-1.28a2.7,2.7,0,0,1,0,.52,2.75,2.75,0,0,1,0,.53h-3.76c-0.37,0-.53.11-0.53,0.45v0.11a1.61,1.61,0,0,1-.38.05,1.85,1.85,0,0,1-.39-0.05,5.81,5.81,0,0,1,0-.65V267.5a0.81,0.81,0,0,1,.91-0.83h4.19Z" transform="translate(-357.01 -247.3)"/><path class="cls-1" d="M444.69,262.37a1.3,1.3,0,0,1,.4.05l0,1.26h3.07a0.38,0.38,0,0,0,.45-0.42v-0.71a1.71,1.71,0,0,1,.53-0.08,0.84,0.84,0,0,1,.23,0,9.7,9.7,0,0,1,.07,1.15,1,1,0,0,1-1.06,1.08h-3.28v0.76a1.71,1.71,0,0,1-.4,0,1.74,1.74,0,0,1-.39,0l0-.76h-0.9c-0.47,0-.68-0.12-0.68-0.56v-0.4l0.07-.07h1.52l0-1.26A1.31,1.31,0,0,1,444.69,262.37Z" transform="translate(-357.01 -247.3)"/><path class="cls-1" d="M447.18,260.45c0.85,0,1.47-.32,1.47-1.19a3.09,3.09,0,0,0-.39-1.43,1.37,1.37,0,0,1,.68-0.34,3.46,3.46,0,0,1,.57,1.93c0,1.62-1.27,2.11-2.66,2.11s-2.68-.72-2.68-2.14a2,2,0,0,1,2.2-2,4,4,0,0,1,.81.07v3Zm-0.77,0v-2.07h-0.13a1.09,1.09,0,0,0-1.31,1C445,260.06,445.51,260.4,446.41,260.45Z" transform="translate(-357.01 -247.3)"/><path class="cls-1" d="M445,254.06c0,0.65.63,1,1.88,1s1.77-.42,1.77-1.16a2.1,2.1,0,0,0-.51-1.24,1.12,1.12,0,0,1,.63-0.45,2.62,2.62,0,0,1,.76,1.86c0,1.47-1.22,2.09-2.64,2.09-1.9,0-2.7-1.07-2.7-2.14a1.68,1.68,0,0,1,1.55-1.86,0.5,0.5,0,0,1,.59.53,2,2,0,0,1,0,.44C445.6,253.14,445,253.31,445,254.06Z" transform="translate(-357.01 -247.3)"/><path class="cls-1" d="M444.69,248.23a1.3,1.3,0,0,1,.4.05l0,1.26h3.07a0.38,0.38,0,0,0,.45-0.42v-0.71a1.71,1.71,0,0,1,.53-0.08,0.84,0.84,0,0,1,.23,0,9.7,9.7,0,0,1,.07,1.15,1,1,0,0,1-1.06,1.08h-3.28v0.76a1.71,1.71,0,0,1-.4,0,1.74,1.74,0,0,1-.39,0l0-.76h-0.9c-0.47,0-.68-0.12-0.68-0.56v-0.4l0.07-.07h1.52l0-1.26A1.31,1.31,0,0,1,444.69,248.23Z" transform="translate(-357.01 -247.3)"/><path class="cls-1" d="M454.2,328.94a1.93,1.93,0,0,0-.92.17,1.06,1.06,0,0,1-.23-0.67,0.54,0.54,0,0,1,.67-0.56h2.62c0.69,0,1-.13,1-0.64a1.92,1.92,0,0,0-.63-1.28h-3.58a3.9,3.9,0,0,1,0-.53,4.18,4.18,0,0,1,0-.53h3.63a1.31,1.31,0,0,0,1-.29,1,1,0,0,1,.53.4,1.07,1.07,0,0,1-.74.86,2.54,2.54,0,0,1,.76,1.71,1.41,1.41,0,0,1-1.68,1.35H454.2Z" transform="translate(-357.01 -247.3)"/><path class="cls-1" d="M453,322.63a1.21,1.21,0,0,1,.91-0.93,1.41,1.41,0,0,1-.91-1.34,2.53,2.53,0,0,1,.06-0.54,2.06,2.06,0,0,1,1,.26,1.87,1.87,0,0,0-.05.42,1.22,1.22,0,0,0,.78,1.1h3.35a2.71,2.71,0,0,1,0,.52,2.75,2.75,0,0,1,0,.53h-3.52a1.44,1.44,0,0,0-1.06.38A1.09,1.09,0,0,1,453,322.63Z" transform="translate(-357.01 -247.3)"/><path class="cls-1" d="M456,317.86c0.85,0,1.47-.32,1.47-1.19a3.09,3.09,0,0,0-.39-1.43,1.37,1.37,0,0,1,.68-0.34,3.45,3.45,0,0,1,.57,1.93c0,1.62-1.27,2.11-2.66,2.11s-2.68-.72-2.68-2.14a2,2,0,0,1,2.2-2,4,4,0,0,1,.81.07v3Zm-0.77,0v-2.07h-0.13a1.09,1.09,0,0,0-1.31,1C453.77,317.47,454.32,317.8,455.22,317.86Z" transform="translate(-357.01 -247.3)"/><path class="cls-7" d="M451.18,309.93a3.15,3.15,0,0,1,0-.54,3.23,3.23,0,0,1,0-.54h7a3.23,3.23,0,0,1,0,.54,3.15,3.15,0,0,1,0,.54h-7Z" transform="translate(-357.01 -247.3)"/><path class="cls-1" d="M454.2,304.09a1.93,1.93,0,0,0-.92.17,1.06,1.06,0,0,1-.23-0.67,0.54,0.54,0,0,1,.67-0.56h2.62c0.69,0,1-.13,1-0.64a1.92,1.92,0,0,0-.63-1.28h-3.58a3.9,3.9,0,0,1,0-.53,4.18,4.18,0,0,1,0-.53h3.63a1.31,1.31,0,0,0,1-.29,1,1,0,0,1,.53.4,1.07,1.07,0,0,1-.74.86,2.54,2.54,0,0,1,.76,1.71,1.41,1.41,0,0,1-1.68,1.35H454.2Z" transform="translate(-357.01 -247.3)"/><path class="cls-1" d="M453,297.77a1.21,1.21,0,0,1,.91-0.93,1.41,1.41,0,0,1-.91-1.34,2.54,2.54,0,0,1,.06-0.54,2.06,2.06,0,0,1,1,.26,1.87,1.87,0,0,0-.05.42,1.22,1.22,0,0,0,.78,1.1h3.35a2.71,2.71,0,0,1,0,.52,2.75,2.75,0,0,1,0,.53h-3.52a1.44,1.44,0,0,0-1.06.38A1.09,1.09,0,0,1,453,297.77Z" transform="translate(-357.01 -247.3)"/><path class="cls-1" d="M458.27,291.68a5.34,5.34,0,0,1-.34,1.87H450.7l-0.06-.06v-0.4c0-.44.21-0.57,0.68-0.57h2.24a2.08,2.08,0,0,1-.52-1.35c0-1.18,1.06-1.78,2.56-1.78C457.39,289.37,458.27,290.42,458.27,291.68Zm-3.77.83h2.85a2.69,2.69,0,0,0,.12-0.84c0-.71-0.63-1.21-1.88-1.21s-1.68.41-1.68,0.93A1.55,1.55,0,0,0,454.5,292.51Z" transform="translate(-357.01 -247.3)"/><path class="cls-1" d="M458.26,284a1.06,1.06,0,0,1-.64.82,2.24,2.24,0,0,1,.7,1.55,1.46,1.46,0,0,1-1.51,1.52,1.7,1.7,0,0,1-1.7-2,7,7,0,0,1,.07-1h-0.4a0.77,0.77,0,0,0-.91.84,4.73,4.73,0,0,0,.39,1.61,1.24,1.24,0,0,1-.77.31,5.79,5.79,0,0,1-.47-2.12,1.53,1.53,0,0,1,1.71-1.68h2.1a1.07,1.07,0,0,0,.88-0.29A1.07,1.07,0,0,1,458.26,284Zm-1.4.93h-1c0,0.31,0,.64,0,0.92a0.85,0.85,0,0,0,.88,1,0.68,0.68,0,0,0,.75-0.69A1.7,1.7,0,0,0,456.86,285Z" transform="translate(-357.01 -247.3)"/><path class="cls-1" d="M457.1,277.77a2,2,0,0,0,.93-0.17,1.13,1.13,0,0,1,.23.67,0.54,0.54,0,0,1-.68.56H455c-0.69,0-1,.14-1,0.64a1.88,1.88,0,0,0,.64,1.29h3.56a2.71,2.71,0,0,1,0,.52,2.82,2.82,0,0,1,0,.53h-5l-0.06-.06v-0.4a0.56,0.56,0,0,1,.64-0.59,2.48,2.48,0,0,1-.69-1.63,1.42,1.42,0,0,1,1.68-1.36h2.39Z" transform="translate(-357.01 -247.3)"/><path class="cls-1" d="M451.25,275.74a1.27,1.27,0,0,1-.12-0.56,1.31,1.31,0,0,1,.12-0.56,1.16,1.16,0,0,1,.46-0.09,1.11,1.11,0,0,1,.45.09,1.15,1.15,0,0,1,.13.56A0.69,0.69,0,0,1,451.25,275.74Zm6.94-1.28a2.7,2.7,0,0,1,0,.52,2.75,2.75,0,0,1,0,.53h-3.76c-0.37,0-.53.11-0.53,0.45v0.11a1.61,1.61,0,0,1-.38.05,1.85,1.85,0,0,1-.39-0.05,5.82,5.82,0,0,1,0-.65v-0.14a0.81,0.81,0,0,1,.91-0.83h4.19Z" transform="translate(-357.01 -247.3)"/><path class="cls-1" d="M457.07,272.46a3.23,3.23,0,0,0,.45-1.44,0.77,0.77,0,0,0-.64-0.92,0.82,0.82,0,0,0-.7.65l-0.22.57a1.63,1.63,0,0,1-1.47,1.3,1.6,1.6,0,0,1-1.52-1.81,4.6,4.6,0,0,1,.37-1.68,1.12,1.12,0,0,1,.78.32,3.38,3.38,0,0,0-.34,1.36,0.64,0.64,0,0,0,.6.74,0.73,0.73,0,0,0,.63-0.64l0.24-.62a1.67,1.67,0,0,1,1.54-1.3c1,0,1.53.81,1.53,2a3.64,3.64,0,0,1-.51,1.85A1.22,1.22,0,0,1,457.07,272.46Z" transform="translate(-357.01 -247.3)"/><path class="cls-1" d="M454,265.11a1.68,1.68,0,0,0,.63,1.11h3.57a2.71,2.71,0,0,1,0,.52,2.82,2.82,0,0,1,0,.53h-5l-0.07-.06v-0.4a0.56,0.56,0,0,1,.65-0.58,2.17,2.17,0,0,1-.7-1.46,1.21,1.21,0,0,1,.76-1.17A2.54,2.54,0,0,1,453,262a1.38,1.38,0,0,1,1.61-1.32h2.46a2,2,0,0,0,.93-0.16,1.13,1.13,0,0,1,.23.67,0.54,0.54,0,0,1-.68.56H455c-0.72,0-1,.21-1,0.62a1.66,1.66,0,0,0,.63,1.11h3.57a2.7,2.7,0,0,1,0,.52,2.75,2.75,0,0,1,0,.53H455C454.26,264.5,454,264.7,454,265.11Z" transform="translate(-357.01 -247.3)"/><path class="cls-1" d="M456,257.81c0.85,0,1.47-.32,1.47-1.19a3.09,3.09,0,0,0-.39-1.43,1.37,1.37,0,0,1,.68-0.34,3.45,3.45,0,0,1,.57,1.93c0,1.62-1.27,2.11-2.66,2.11s-2.68-.72-2.68-2.14a2,2,0,0,1,2.2-2,4,4,0,0,1,.81.07v3Zm-0.77,0v-2.07h-0.13a1.09,1.09,0,0,0-1.31,1C453.77,257.42,454.32,257.76,455.22,257.81Z" transform="translate(-357.01 -247.3)"/><path class="cls-7" d="M451.18,249.89a3.15,3.15,0,0,1,0-.54,3.23,3.23,0,0,1,0-.54h7a3.23,3.23,0,0,1,0,.54,3.15,3.15,0,0,1,0,.54h-7Z" transform="translate(-357.01 -247.3)"/><path class="cls-1" d="M464.79,328.16c0.85,0,1.47-.32,1.47-1.19a3.09,3.09,0,0,0-.39-1.43,1.37,1.37,0,0,1,.68-0.34,3.45,3.45,0,0,1,.57,1.93c0,1.62-1.27,2.11-2.66,2.11s-2.68-.72-2.68-2.14a2,2,0,0,1,2.2-2,4,4,0,0,1,.81.07v3Zm-0.77,0v-2.07h-0.13a1.09,1.09,0,0,0-1.31,1C462.58,327.77,463.12,328.11,464,328.16Z" transform="translate(-357.01 -247.3)"/><path class="cls-1" d="M465.9,318.34a2,2,0,0,0,.93-0.17,1.13,1.13,0,0,1,.23.67,0.54,0.54,0,0,1-.68.56h-2.61c-0.69,0-1,.14-1,0.64a1.88,1.88,0,0,0,.64,1.29H467a2.7,2.7,0,0,1,0,.52,2.82,2.82,0,0,1,0,.53h-5l-0.06-.06v-0.4a0.56,0.56,0,0,1,.64-0.59,2.47,2.47,0,0,1-.69-1.63,1.42,1.42,0,0,1,1.68-1.36h2.39Z" transform="translate(-357.01 -247.3)"/><path class="cls-1" d="M461.92,312.7a1.9,1.9,0,0,1,0-.4,1.53,1.53,0,0,1,.08-0.53l0,0c1.58,0.47,3.86,1.2,5,1.58a4.69,4.69,0,0,1,.05.77,0.66,0.66,0,0,1-.58.77L462,316.28a1.5,1.5,0,0,1-.15-0.61,0.52,0.52,0,0,1,.45-0.57l2.26-.69c0.51-.16,1.18-0.33,1.49-0.4,0.08,0,.08,0,0.08-0.09Z" transform="translate(-357.01 -247.3)"/><path class="cls-1" d="M460.05,309.48a1.28,1.28,0,0,1-.12-0.56,1.31,1.31,0,0,1,.12-0.56,1.16,1.16,0,0,1,.46-0.09,1.11,1.11,0,0,1,.45.09,1.15,1.15,0,0,1,.13.56A0.69,0.69,0,0,1,460.05,309.48ZM467,308.2a2.7,2.7,0,0,1,0,.52,2.75,2.75,0,0,1,0,.53h-3.76c-0.37,0-.53.11-0.53,0.45v0.11a1.62,1.62,0,0,1-.38.05,1.86,1.86,0,0,1-.39-0.05,5.83,5.83,0,0,1,0-.65V309a0.81,0.81,0,0,1,.91-0.83H467Z" transform="translate(-357.01 -247.3)"/><path class="cls-1" d="M461.85,305.13a1.21,1.21,0,0,1,.91-0.93,1.41,1.41,0,0,1-.91-1.34,2.54,2.54,0,0,1,.06-0.54,2.06,2.06,0,0,1,1,.26,1.88,1.88,0,0,0-.05.42,1.22,1.22,0,0,0,.78,1.1H467a2.7,2.7,0,0,1,0,.52,2.75,2.75,0,0,1,0,.53h-3.52a1.44,1.44,0,0,0-1.06.38A1.09,1.09,0,0,1,461.85,305.13Z" transform="translate(-357.01 -247.3)"/><path class="cls-1" d="M466.56,296.91a2.24,2.24,0,0,1,0,3,3.4,3.4,0,0,1-4.21,0,2.24,2.24,0,0,1,0-3A3.4,3.4,0,0,1,466.56,296.91Zm-0.25,1.49c0-.88-0.9-1.13-1.86-1.13s-1.86.25-1.86,1.13,0.91,1.12,1.86,1.12S466.31,299.28,466.31,298.4Z" transform="translate(-357.01 -247.3)"/><path class="cls-1" d="M465.9,289.5a2,2,0,0,0,.93-0.17,1.13,1.13,0,0,1,.23.67,0.54,0.54,0,0,1-.68.56h-2.61c-0.69,0-1,.14-1,0.64a1.88,1.88,0,0,0,.64,1.29H467a2.7,2.7,0,0,1,0,.52,2.81,2.81,0,0,1,0,.53h-5l-0.06-.06v-0.4a0.56,0.56,0,0,1,.64-0.58,2.48,2.48,0,0,1-.69-1.63,1.42,1.42,0,0,1,1.68-1.36h2.39Z" transform="translate(-357.01 -247.3)"/><path class="cls-1" d="M465.9,282.52a2,2,0,0,0,.93-0.17,1.13,1.13,0,0,1,.23.67,0.54,0.54,0,0,1-.68.56h-2.61c-0.69,0-1,.14-1,0.64a1.88,1.88,0,0,0,.64,1.29H467a2.7,2.7,0,0,1,0,.52,2.82,2.82,0,0,1,0,.53h-5l-0.06-.06v-0.4a0.56,0.56,0,0,1,.64-0.58,2.48,2.48,0,0,1-.69-1.63,1.42,1.42,0,0,1,1.68-1.36h2.39Z" transform="translate(-357.01 -247.3)"/><path class="cls-1" d="M464.79,278.83c0.85,0,1.47-.32,1.47-1.19a3.09,3.09,0,0,0-.39-1.43,1.37,1.37,0,0,1,.68-0.34,3.45,3.45,0,0,1,.57,1.93c0,1.62-1.27,2.11-2.66,2.11s-2.68-.72-2.68-2.14a2,2,0,0,1,2.2-2,4,4,0,0,1,.81.07v3Zm-0.77,0v-2.07h-0.13a1.09,1.09,0,0,0-1.31,1C462.58,278.44,463.12,278.78,464,278.83Z" transform="translate(-357.01 -247.3)"/><path class="cls-1" d="M462.79,270.89a1.68,1.68,0,0,0,.63,1.11H467a2.7,2.7,0,0,1,0,.52,2.82,2.82,0,0,1,0,.53h-5l-0.07-.06v-0.4a0.56,0.56,0,0,1,.65-0.58,2.17,2.17,0,0,1-.7-1.46,1.21,1.21,0,0,1,.76-1.17,2.54,2.54,0,0,1-.76-1.63,1.38,1.38,0,0,1,1.61-1.32h2.46a2,2,0,0,0,.93-0.16,1.13,1.13,0,0,1,.23.67,0.54,0.54,0,0,1-.68.56h-2.62c-0.72,0-1,.21-1,0.62a1.66,1.66,0,0,0,.63,1.11H467a2.71,2.71,0,0,1,0,.52,2.75,2.75,0,0,1,0,.53h-3.21C463.06,270.27,462.79,270.48,462.79,270.89Z" transform="translate(-357.01 -247.3)"/><path class="cls-1" d="M464.79,262.75c0.85,0,1.47-.32,1.47-1.19a3.09,3.09,0,0,0-.39-1.43,1.37,1.37,0,0,1,.68-0.34,3.45,3.45,0,0,1,.57,1.93c0,1.62-1.27,2.11-2.66,2.11s-2.68-.72-2.68-2.14a2,2,0,0,1,2.2-2,4,4,0,0,1,.81.07v3Zm-0.77,0v-2.07h-0.13a1.09,1.09,0,0,0-1.31,1C462.58,262.36,463.12,262.7,464,262.75Z" transform="translate(-357.01 -247.3)"/><path class="cls-1" d="M465.9,252.93a2,2,0,0,0,.93-0.17,1.13,1.13,0,0,1,.23.67,0.54,0.54,0,0,1-.68.56h-2.61c-0.69,0-1,.14-1,0.64a1.88,1.88,0,0,0,.64,1.29H467a2.7,2.7,0,0,1,0,.52,2.82,2.82,0,0,1,0,.53h-5l-0.06-.06v-0.4a0.56,0.56,0,0,1,.64-0.58,2.48,2.48,0,0,1-.69-1.63,1.42,1.42,0,0,1,1.68-1.36h2.39Z" transform="translate(-357.01 -247.3)"/><path class="cls-1" d="M462.3,247.44a1.3,1.3,0,0,1,.4.05l0,1.26h3.07a0.38,0.38,0,0,0,.45-0.42v-0.71a1.71,1.71,0,0,1,.53-0.08,0.84,0.84,0,0,1,.23,0,9.66,9.66,0,0,1,.07,1.15,1,1,0,0,1-1.06,1.08h-3.28v0.76a1.71,1.71,0,0,1-.4,0,1.74,1.74,0,0,1-.39,0l0-.76H461c-0.47,0-.68-0.12-0.68-0.56v-0.4l0.07-.07h1.52l0-1.26A1.31,1.31,0,0,1,462.3,247.44Z" transform="translate(-357.01 -247.3)"/><path class="cls-1" d="M470.62,247.3v19.27c0,4.3,2.82,7.12,7.14,7.12H497v-21.6l-4.78-4.78h-21.6Zm25.82,25.82H477.76a6.15,6.15,0,0,1-6.58-6.55v-18.7H492l4.45,4.45v20.81Z" transform="translate(-357.01 -247.3)"/><path class="cls-1" d="M492.23,275.1h-21.6v26.39H497v-21.6Zm4.22,25.82H471.19V275.67H492l4.45,4.45v20.81Z" transform="translate(-357.01 -247.3)"/></svg>