<svg width="162" height="50" viewBox="0 0 162 50" version="1.1" xmlns="http://www.w3.org/2000/svg" xmlns:xlink="http://www.w3.org/1999/xlink">
<g id="Canvas" fill="none">
<g id="Group">
<g id="Vector">
<path d="M 10.3133 6.96347L 0 6.96347L 0 1.36084e-08L 28.5644 1.36084e-08L 28.5644 6.96347L 18.2511 6.96347L 18.2511 35.6164L 10.3133 35.6164L 10.3133 6.96347Z" transform="translate(0 0.342407)" fill="#007AC2"/>
</g>
<g id="Vector_2">
<path d="M 13.5579 20.4338L 8.84093e-07 1.36084e-08L 9.90773 1.36084e-08L 17.5558 13.3562L 25.6674 1.36084e-08L 35.1116 1.36084e-08L 21.4957 20.4338L 21.4957 35.6164L 13.5579 35.6164L 13.5579 20.4338Z" transform="translate(59.041 0.342407)" fill="#007AC2"/>
</g>
<g id="Vector_3">
<path d="M 18.6566 10.3881L 14.2532 21.4612L 23.0601 21.4612L 18.6566 10.3881ZM 15.5858 1.36084e-08L 22.191 1.36084e-08L 37.8927 35.6164L 28.912 35.6164L 25.7833 28.0822L 11.7618 28.0822L 8.74893 35.6164L -1.76819e-06 35.6164L 15.5858 1.36084e-08Z" transform="translate(124.107 0.342407)" fill="#007AC2"/>
</g>
<g id="Vector_4">
<path d="M 0.637336 3.08219C 0.637336 4.45205 1.7382 5.53653 3.12876 5.59361C 4.51932 5.59361 5.62017 4.50913 5.67811 3.08219C 5.67811 1.71233 4.57726 0.627854 3.12876 0.570776C 1.7382 0.627854 0.637336 1.71233 0.637336 3.08219ZM -7.07274e-06 3.08219C -7.07274e-06 1.36986 1.39056 0 3.12876 0C 4.86696 0 6.25751 1.36986 6.25751 3.08219C 6.25751 4.79452 4.86696 6.16438 3.12876 6.16438C 1.4485 6.16438 -7.07274e-06 4.79452 -7.07274e-06 3.08219Z" transform="translate(155.453 0)" fill="#007AC2"/>
</g>
<g id="Vector_5">
<path d="M 1.27469 1.42694C 1.68026 1.42694 2.14378 1.36986 2.14378 0.97032C 2.14378 0.570776 1.73819 0.513699 1.33261 0.513699L 0.695286 0.513699L 0.695286 1.42694L 1.27469 1.42694ZM 0.0579435 2.72167e-08L 1.4485 2.72167e-08C 2.20172 2.72167e-08 2.897 0.228311 2.897 0.97032C 2.897 1.48402 2.54935 1.82648 1.96995 1.88356L 3.01288 3.36758L 2.14378 3.36758L 1.21674 1.94064L 0.695286 1.94064L 0.695286 3.36758L 0 3.36758L 0 2.72167e-08L 0.0579435 2.72167e-08Z" transform="translate(157.307 1.25574)" fill="#007AC2"/>
</g>
<g id="Vector_6">
<path d="M 7.93777 28.9954L 15.0644 28.9954C 17.5558 28.9954 20.3948 27.968 20.3948 24.8288C 20.3948 21.4612 16.5708 20.8904 13.9635 20.8904L 7.93777 20.8904L 7.93777 28.9954ZM 7.93777 14.2694L 13.7318 14.2694C 16.1652 14.2694 18.7146 13.242 18.7146 10.3881C 18.7146 7.42009 15.8755 6.67808 13.3841 6.67808L 7.99571 6.67808L 7.99571 14.2694L 7.93777 14.2694ZM -1.76819e-06 1.36084e-08L 13.4421 1.36084e-08C 19.7575 1.36084e-08 26.6524 1.31278 26.6524 9.07534C 26.6524 13.0708 24.1609 15.7534 20.4528 16.895L 20.4528 17.0091C 25.2039 17.637 28.3326 21.0616 28.3326 25.6849C 28.3326 33.105 21.206 35.5594 14.7747 35.5594L -1.76819e-06 35.5594L -1.76819e-06 1.36084e-08Z" transform="translate(96.2964 0.342407)" fill="#007AC2"/>
</g>
<g id="Vector_7">
<path d="M 7.93777 14.726L 12.6309 14.726C 15.5279 14.726 19.294 14.6119 19.294 10.7306C 19.294 7.1347 16.0494 6.621 13.0944 6.621L 7.87983 6.621L 7.87983 14.726L 7.93777 14.726ZM 8.84093e-07 1.36084e-08L 13.9635 1.36084e-08C 21.3798 1.36084e-08 27.5794 2.51142 27.5794 10.8447C 27.5794 15.8105 24.8562 19.6918 19.7575 20.605L 28.97 35.6164L 19.4099 35.6164L 11.8777 21.4041L 7.93777 21.4041L 7.93777 35.6164L 8.84093e-07 35.6164L 8.84093e-07 1.36084e-08Z" transform="translate(32.0986 0.342407)" fill="#007AC2"/>
</g>
<g id="Vector_8">
<path d="M 3.76609 1.59817C 3.65021 1.42694 3.53434 1.36986 3.36052 1.25571C 3.1867 1.19863 3.01288 1.14155 2.78112 1.14155C 2.54936 1.14155 2.37554 1.19863 2.14378 1.25571C 1.96996 1.36986 1.79614 1.48402 1.68026 1.59817C 1.56438 1.76941 1.4485 1.94064 1.33262 2.16895C 1.27468 2.39726 1.21674 2.62557 1.21674 2.85388C 1.21674 3.13927 1.27468 3.36758 1.33262 3.53881C 1.39056 3.76712 1.50644 3.93836 1.68026 4.10959C 1.79614 4.28082 1.96996 4.39498 2.14378 4.45205C 2.3176 4.56621 2.54936 4.56621 2.72318 4.56621C 2.95494 4.56621 3.1867 4.50913 3.36052 4.39498C 3.53434 4.28082 3.70815 4.16667 3.82403 3.93836L 4.80901 4.68037C 4.57725 5.02283 4.28755 5.25114 3.93991 5.42237C 3.59228 5.59361 3.24464 5.65068 2.897 5.65068C 2.49142 5.65068 2.08584 5.59361 1.7382 5.42237C 1.39056 5.30822 1.10086 5.07991 0.811159 4.8516C 0.579399 4.62329 0.34764 4.28082 0.23176 3.93836C 0.0579399 3.76712 0 3.36758 0 2.91096C 0 2.45434 0.0579399 2.05479 0.23176 1.71233C 0.34764 1.36986 0.579399 1.0274 0.811159 0.799086C 1.04292 0.570775 1.39056 0.342465 1.7382 0.22831C 2.08584 0.114154 2.49142 -1.74187e-06 2.897 -1.74187e-06C 3.07082 -1.74187e-06 3.1867 1.73932e-06 3.36052 0.0570794C 3.53434 0.114157 3.70815 0.114155 3.82403 0.171233C 3.99785 0.22831 4.11373 0.342467 4.28755 0.399544C 4.46137 0.513699 4.57725 0.627853 4.69313 0.799086L 3.76609 1.59817Z" transform="translate(0 44.064)" fill="#007AC2"/>
</g>
<g id="Vector_9">
<path d="M -2.21023e-07 2.91096C -2.21023e-07 2.45434 0.05794 2.05479 0.23176 1.71233C 0.34764 1.36986 0.579399 1.0274 0.811159 0.799086C 1.04292 0.570775 1.39056 0.342465 1.7382 0.22831C 2.08584 0.114154 2.49142 -1.74187e-06 2.897 -1.74187e-06C 3.30257 -1.74187e-06 3.70815 0.0570768 4.05579 0.22831C 4.40343 0.342465 4.69313 0.570775 4.98283 0.799086C 5.21459 1.0274 5.44635 1.36986 5.56223 1.71233C 5.67811 2.05479 5.79399 2.45434 5.79399 2.91096C 5.79399 3.36758 5.73605 3.76712 5.56223 4.10959C 5.44635 4.45206 5.21459 4.79452 4.98283 5.02283C 4.75107 5.25114 4.40343 5.47945 4.05579 5.59361C 3.70815 5.70776 3.30257 5.82192 2.897 5.82192C 2.49142 5.82192 2.08584 5.76484 1.7382 5.59361C 1.39056 5.47945 1.10086 5.25114 0.811159 5.02283C 0.579399 4.79452 0.34764 4.45206 0.23176 4.10959C 0.05794 3.76712 -2.21023e-07 3.36758 -2.21023e-07 2.91096ZM 1.21674 2.91096C 1.21674 3.19635 1.27468 3.42466 1.33262 3.59589C 1.39056 3.8242 1.50644 3.99543 1.68026 4.16667C 1.85408 4.3379 2.0279 4.45205 2.20172 4.50913C 2.43348 4.62329 2.6073 4.62329 2.897 4.62329C 3.12876 4.62329 3.36052 4.56621 3.59227 4.50913C 3.82403 4.39498 3.99785 4.28082 4.11373 4.16667C 4.28755 3.99543 4.34549 3.8242 4.46137 3.59589C 4.51931 3.36758 4.57725 3.13927 4.57725 2.91096C 4.57725 2.68265 4.51931 2.39726 4.46137 2.22603C 4.40343 1.99772 4.28755 1.82648 4.11373 1.65525C 3.93991 1.48402 3.76609 1.36986 3.59227 1.31279C 3.41846 1.19863 3.1867 1.19863 2.897 1.19863C 2.66524 1.19863 2.43348 1.25571 2.20172 1.31279C 1.96996 1.42694 1.79614 1.54109 1.68026 1.65525C 1.50644 1.82648 1.4485 1.99772 1.33262 2.22603C 1.27468 2.45434 1.21674 2.68265 1.21674 2.91096Z" transform="translate(5.15674 44.064)" fill="#007AC2"/>
</g>
<g id="Vector_10">
<path d="M 4.42046e-07 0L 1.62232 0L 3.88197 3.8242L 3.88197 0L 5.04077 0L 5.04077 5.47945L 3.53433 5.47945L 1.21674 1.59818L 1.1588 1.59818L 1.1588 5.47945L 4.42046e-07 5.47945L 4.42046e-07 0Z" transform="translate(11.7041 44.2351)" fill="#007AC2"/>
</g>
<g id="Vector_11">
<path d="M 3.76609 1.76941C 3.65021 1.59817 3.53433 1.5411 3.36051 1.42694C 3.18669 1.36986 3.01287 1.31278 2.78112 1.31278C 2.54936 1.31278 2.37554 1.36986 2.14378 1.42694C 1.96996 1.5411 1.79614 1.65525 1.68026 1.76941C 1.56438 1.94064 1.4485 2.11187 1.33262 2.34018C 1.27468 2.56849 1.21674 2.7968 1.21674 3.02511C 1.21674 3.3105 1.27468 3.53881 1.33262 3.71005C 1.39056 3.93836 1.50644 4.10959 1.68026 4.28082C 1.79614 4.45206 1.96996 4.56621 2.14378 4.62329C 2.3176 4.73744 2.54936 4.73744 2.72318 4.73744C 2.95494 4.73744 3.18669 4.68037 3.36051 4.56621C 3.53433 4.45206 3.70816 4.3379 3.82404 4.10959L 4.80901 4.8516C 4.57725 5.19407 4.28755 5.42237 3.93991 5.59361C 3.59227 5.76484 3.24463 5.82192 2.897 5.82192C 2.49142 5.82192 2.08584 5.76484 1.7382 5.59361C 1.39056 5.47945 1.10086 5.25114 0.811159 5.02283C 0.5794 4.79452 0.34764 4.45205 0.23176 4.10959C 0.11588 3.76712 -4.42047e-07 3.36758 -4.42047e-07 2.91096C -4.42047e-07 2.45434 0.0579403 2.0548 0.23176 1.71233C 0.34764 1.36986 0.5794 1.0274 0.811159 0.799088C 1.04292 0.570778 1.39056 0.342467 1.7382 0.228312C 2.08584 0.114157 2.49142 8.70935e-07 2.897 8.70935e-07C 3.07082 8.70935e-07 3.18669 0 3.36051 0.0570776C 3.53433 0.114155 3.70816 0.114154 3.82404 0.171231C 3.99786 0.228309 4.11373 0.342465 4.28755 0.399543C 4.46137 0.513698 4.57725 0.627856 4.69313 0.799088L 3.76609 1.76941Z" transform="translate(17.5557 43.8927)" fill="#007AC2"/>
</g>
<g id="Vector_12">
<path d="M -4.42047e-07 0L 3.59227 0L 3.59227 1.14155L 1.1588 1.14155L 1.1588 2.16895L 3.47639 2.16895L 3.47639 3.25342L 1.1588 3.25342L 1.1588 4.39498L 3.76609 4.39498L 3.76609 5.47945L -4.42047e-07 5.47945L -4.42047e-07 0Z" transform="translate(23.0601 44.2351)" fill="#007AC2"/>
</g>
<g id="Vector_13">
<path d="M 8.84093e-07 0L 1.96996 0C 2.25966 0 2.49142 -8.71786e-07 2.78112 0.0570768C 3.01288 0.114154 3.24463 0.171232 3.41845 0.342465C 3.59227 0.45662 3.76609 0.627854 3.88197 0.856164C 3.99785 1.08447 4.05579 1.36986 4.05579 1.65525C 4.05579 1.99772 3.99785 2.22603 3.88197 2.45434C 3.76609 2.68265 3.65022 2.85388 3.4764 2.96803C 3.30258 3.08219 3.07081 3.19635 2.83906 3.25342C 2.6073 3.3105 2.3176 3.3105 2.0279 3.3105L 1.1588 3.3105L 1.1588 5.47945L 8.84093e-07 5.47945L 8.84093e-07 0ZM 1.1588 2.34018L 1.96996 2.34018C 2.08584 2.34018 2.20172 2.34018 2.25966 2.2831C 2.3176 2.22603 2.43348 2.22603 2.54936 2.16895C 2.6073 2.11187 2.66524 2.0548 2.72317 1.94064C 2.78111 1.88356 2.78112 1.76941 2.78112 1.59818C 2.78112 1.48402 2.72318 1.36986 2.66524 1.25571C 2.6073 1.14155 2.54936 1.08448 2.43348 1.08448C 2.3176 1.0274 2.20172 1.0274 2.08584 0.970318C 1.96996 0.970318 1.85408 0.970318 1.7382 0.970318L 1.1588 0.970318L 1.1588 2.34018Z" transform="translate(27.7534 44.2351)" fill="#007AC2"/>
</g>
<g id="Vector_14">
<path d="M 1.50644 1.08448L 4.42046e-07 1.08448L 4.42046e-07 0L 4.22961 0L 4.22961 1.08448L 2.72318 1.08448L 2.72318 5.47945L 1.50644 5.47945L 1.50644 1.08448Z" transform="translate(31.9829 44.2351)" fill="#007AC2"/>
</g>
<g id="Vector_15">
<path d="M -8.84093e-07 0L 3.59228 0L 3.59228 1.14155L 1.1588 1.14155L 1.1588 2.16895L 3.47639 2.16895L 3.47639 3.25342L 1.1588 3.25342L 1.1588 4.39498L 3.76609 4.39498L 3.76609 5.47945L -8.84093e-07 5.47945L -8.84093e-07 0Z" transform="translate(36.8496 44.2351)" fill="#007AC2"/>
</g>
<g id="Vector_16">
<path d="M 4.40343 3.36758C 4.40343 3.71005 4.3455 3.99543 4.28756 4.28082C 4.17168 4.56621 4.05579 4.79452 3.88197 5.02283C 3.70815 5.25114 3.4764 5.3653 3.1867 5.47945C 2.897 5.59361 2.60729 5.65069 2.20172 5.65069C 1.85408 5.65069 1.50644 5.59361 1.21674 5.47945C 0.927039 5.3653 0.695281 5.19407 0.521461 5.02283C 0.347641 4.79452 0.173819 4.56621 0.115879 4.28082C -8.89273e-07 3.99543 8.84093e-07 3.71005 8.84093e-07 3.36758L 8.84093e-07 0L 1.1588 0L 1.1588 3.3105C 1.1588 3.48174 1.1588 3.65297 1.21674 3.76712C 1.27468 3.93835 1.33262 4.05251 1.4485 4.16667C 1.56438 4.28082 1.68026 4.3379 1.79614 4.39498C 1.91202 4.45205 2.08584 4.50913 2.20172 4.50913C 2.37554 4.50913 2.49142 4.45205 2.6073 4.39498C 2.72318 4.3379 2.83906 4.28082 2.95494 4.16667C 3.07082 4.05251 3.12876 3.93835 3.1867 3.76712C 3.24464 3.59589 3.24464 3.48174 3.24464 3.3105L 3.24464 0L 4.40343 0L 4.40343 3.36758Z" transform="translate(41.6587 44.2351)" fill="#007AC2"/>
</g>
<g id="Vector_17">
<path d="M 1.76819e-06 0L 2.08584 0C 2.37554 0 2.60729 -8.71786e-07 2.83905 0.0570768C 3.07081 0.114154 3.30258 0.22831 3.4764 0.342465C 3.65022 0.45662 3.82403 0.627854 3.93991 0.856164C 4.05579 1.08447 4.11373 1.31279 4.11373 1.65525C 4.11373 2.0548 3.99785 2.39726 3.82404 2.62557C 3.65022 2.91096 3.36052 3.08219 2.95494 3.13927L 4.28755 5.47945L 2.897 5.47945L 1.79614 3.25342L 1.21674 3.25342L 1.21674 5.47945L 0.0579408 5.47945L 0.0579408 0L 1.76819e-06 0ZM 1.21674 2.2831L 1.91202 2.2831C 2.0279 2.2831 2.14378 2.2831 2.25965 2.2831C 2.37553 2.2831 2.49142 2.22603 2.6073 2.22603C 2.72318 2.16895 2.78111 2.11187 2.83905 2.05479C 2.89699 1.99772 2.95494 1.88356 2.95494 1.71233C 2.95494 1.59817 2.95494 1.48402 2.897 1.36986C 2.83906 1.31279 2.78112 1.19863 2.66524 1.19863C 2.6073 1.14155 2.49142 1.14155 2.37554 1.08448C 2.25966 1.08448 2.14378 1.08448 2.0279 1.08448L 1.27468 1.08448L 1.27468 2.2831L 1.21674 2.2831Z" transform="translate(47.105 44.2351)" fill="#007AC2"/>
</g>
<g id="Vector_18">
<path d="M 1.85408 0L 0 0L 0 0.913242L 1.85408 0.913242L 1.85408 0Z" transform="translate(53.8843 47.3174)" fill="#007AC2"/>
</g>
<g id="Vector_19">
<path d="M 8.84093e-07 0L 3.53433 0L 3.53433 1.14155L 1.1588 1.14155L 1.1588 2.22603L 3.36051 2.22603L 3.36051 3.36758L 1.1588 3.36758L 1.1588 5.47945L 8.84093e-07 5.47945L 8.84093e-07 0Z" transform="translate(58.751 44.2351)" fill="#007AC2"/>
</g>
<g id="Vector_20">
<path d="M 2.3176 0L 3.30257 0L 5.62017 5.47945L 4.28755 5.47945L 3.82404 4.3379L 1.7382 4.3379L 1.27468 5.47945L 1.76819e-06 5.47945L 2.3176 0ZM 2.78111 1.59818L 2.14378 3.3105L 3.41845 3.3105L 2.78111 1.59818Z" transform="translate(62.1694 44.2351)" fill="#007AC2"/>
</g>
<g id="Vector_21">
<path d="M 8.84093e-07 0L 1.96996 0C 2.20172 0 2.43348 -8.71786e-07 2.66524 0.0570768C 2.897 0.114154 3.12875 0.171233 3.30257 0.285388C 3.47639 0.399543 3.65022 0.513697 3.7661 0.68493C 3.88198 0.856163 3.93991 1.08447 3.93991 1.42694C 3.93991 1.71233 3.88198 1.99772 3.70816 2.22603C 3.53434 2.45434 3.30257 2.56849 3.07081 2.68265C 3.24463 2.68265 3.41845 2.73973 3.53433 2.85388C 3.65021 2.91096 3.82403 3.02511 3.88197 3.13927C 3.99785 3.25342 4.05579 3.36758 4.11373 3.53881C 4.17167 3.71004 4.17167 3.88128 4.17167 4.05251C 4.17167 4.3379 4.11374 4.56621 3.99786 4.79452C 3.88198 4.96575 3.70815 5.13698 3.53433 5.25114C 3.36052 5.36529 3.12876 5.47945 2.897 5.53653C 2.66524 5.59361 2.43347 5.59361 2.20171 5.59361L 8.84093e-07 5.59361L 8.84093e-07 0ZM 1.1588 2.22603L 2.0279 2.22603C 2.14378 2.22603 2.20172 2.22603 2.3176 2.16895C 2.43348 2.16895 2.49142 2.11187 2.54936 2.05479C 2.6073 1.99772 2.66524 1.94064 2.72318 1.88356C 2.78112 1.82649 2.78111 1.71233 2.78111 1.59818C 2.78111 1.48402 2.78112 1.36986 2.72318 1.31279C 2.66524 1.25571 2.6073 1.19863 2.54936 1.14155C 2.49142 1.08447 2.37554 1.08448 2.3176 1.0274C 2.20172 1.0274 2.14378 1.0274 2.0279 1.0274L 1.21674 1.0274L 1.21674 2.22603L 1.1588 2.22603ZM 1.1588 4.45206L 2.20171 4.45206C 2.31759 4.45206 2.37553 4.45205 2.49141 4.39498C 2.60729 4.39498 2.66524 4.3379 2.72318 4.28082C 2.78112 4.22374 2.83906 4.16667 2.897 4.05251C 2.95494 3.99543 2.95494 3.88128 2.95494 3.76712C 2.95494 3.65297 2.897 3.53881 2.83906 3.42466C 2.78112 3.3105 2.72318 3.3105 2.6073 3.25342C 2.49142 3.19635 2.43348 3.19635 2.3176 3.13927C 2.20172 3.13927 2.08584 3.13927 2.0279 3.13927L 1.1588 3.13927L 1.1588 4.45206Z" transform="translate(68.311 44.2351)" fill="#007AC2"/>
</g>
<g id="Vector_22">
<path d="M 1.76819e-06 0L 2.08583 0C 2.37553 0 2.60729 -8.71786e-07 2.83905 0.0570768C 3.07081 0.114154 3.30258 0.22831 3.4764 0.342465C 3.65022 0.45662 3.82404 0.627854 3.93992 0.856164C 4.0558 1.08447 4.11373 1.31279 4.11373 1.65525C 4.11373 2.0548 3.99785 2.39726 3.82403 2.62557C 3.65021 2.91096 3.36051 3.08219 2.95493 3.13927L 4.28755 5.47945L 2.897 5.47945L 1.79613 3.25342L 1.21673 3.25342L 1.21673 5.47945L 0.0579408 5.47945L 0.0579408 0L 1.76819e-06 0ZM 1.21673 2.2831L 1.91202 2.2831C 2.0279 2.2831 2.14378 2.2831 2.25965 2.2831C 2.37553 2.2831 2.49142 2.22603 2.6073 2.22603C 2.72318 2.16895 2.78111 2.11187 2.83905 2.05479C 2.89699 1.99772 2.95493 1.88356 2.95493 1.71233C 2.95493 1.59817 2.95494 1.48402 2.897 1.36986C 2.83906 1.31279 2.78111 1.19863 2.66523 1.19863C 2.60729 1.14155 2.49141 1.14155 2.37553 1.08448C 2.25965 1.0274 2.14378 1.08448 2.0279 1.08448L 1.27468 1.08448L 1.27468 2.2831L 1.21673 2.2831Z" transform="translate(73.1782 44.2351)" fill="#007AC2"/>
</g>
<g id="Vector_23">
<path d="M 1.1588 0L 0 0L 0 5.47945L 1.1588 5.47945L 1.1588 0Z" transform="translate(78.0449 44.2351)" fill="#007AC2"/>
</g>
<g id="Vector_24">
<path d="M 3.7661 1.76941C 3.65022 1.59817 3.53433 1.5411 3.36051 1.42694C 3.18669 1.36986 3.01287 1.31278 2.78111 1.31278C 2.54935 1.31278 2.37554 1.36986 2.14378 1.42694C 1.96996 1.5411 1.79614 1.65525 1.68026 1.76941C 1.56438 1.94064 1.44849 2.11187 1.33261 2.34018C 1.27467 2.56849 1.21674 2.7968 1.21674 3.02511C 1.21674 3.3105 1.27467 3.53881 1.33261 3.71005C 1.39055 3.93836 1.50644 4.10959 1.68026 4.28082C 1.85408 4.45206 1.96996 4.56621 2.14378 4.62329C 2.3176 4.73744 2.54936 4.73744 2.72318 4.73744C 2.95494 4.73744 3.18669 4.68037 3.36051 4.56621C 3.53433 4.45206 3.70815 4.3379 3.82403 4.10959L 4.80901 4.8516C 4.57725 5.19407 4.28755 5.42237 3.93991 5.59361C 3.59227 5.76484 3.24464 5.82192 2.897 5.82192C 2.49142 5.82192 2.08584 5.76484 1.7382 5.59361C 1.39056 5.47945 1.10086 5.25114 0.811159 5.02283C 0.579399 4.79452 0.34764 4.45205 0.23176 4.10959C 0.11588 3.76712 3.53637e-06 3.36758 3.53637e-06 2.91096C 3.53637e-06 2.45434 0.0579399 2.0548 0.23176 1.71233C 0.34764 1.36986 0.579399 1.0274 0.811159 0.799088C 1.04292 0.570778 1.39056 0.342467 1.7382 0.228312C 2.08584 0.114157 2.49142 8.70935e-07 2.897 8.70935e-07C 3.07082 8.70935e-07 3.18669 0 3.36051 0.0570776C 3.53433 0.114155 3.70815 0.114154 3.82403 0.171231C 3.99785 0.228309 4.11373 0.342465 4.28755 0.399543C 4.46137 0.513698 4.57725 0.627856 4.69313 0.799088L 3.7661 1.76941Z" transform="translate(80.0151 43.8927)" fill="#007AC2"/>
</g>
<g id="Vector_25">
<path d="M 2.3176 0L 3.30257 0L 5.62017 5.47945L 4.28755 5.47945L 3.82404 4.3379L 1.7382 4.3379L 1.27468 5.47945L 0 5.47945L 2.3176 0ZM 2.78112 1.59818L 2.14377 3.3105L 3.41845 3.3105L 2.78112 1.59818Z" transform="translate(84.8818 44.2351)" fill="#007AC2"/>
</g>
<g id="Vector_26">
<path d="M 3.53637e-06 0L 1.62231 0L 3.88198 3.8242L 3.88198 0L 5.04077 0L 5.04077 5.47945L 3.53433 5.47945L 1.21674 1.59818L 1.1588 1.59818L 1.1588 5.47945L 3.53637e-06 5.47945L 3.53637e-06 0Z" transform="translate(91.0234 44.2351)" fill="#007AC2"/>
</g>
<g id="Vector_27">
<path d="M 1.50644 1.08448L -3.53637e-06 1.08448L -3.53637e-06 0L 4.17168 0L 4.17168 1.08448L 2.66524 1.08448L 2.66524 5.47945L 1.50644 5.47945L 1.50644 1.08448Z" transform="translate(96.7017 44.2351)" fill="#007AC2"/>
</g>
<g id="Vector_28">
<path d="M 1.85408 0L -3.53637e-06 0L -3.53637e-06 0.913242L 1.85408 0.913242L 1.85408 0Z" transform="translate(103.365 47.3174)" fill="#007AC2"/>
</g>
<g id="Vector_29">
<path d="M 1.1588 0L 0 0L 0 5.47945L 1.1588 5.47945L 1.1588 0Z" transform="translate(108.174 44.2351)" fill="#007AC2"/>
</g>
<g id="Vector_30">
<path d="M 3.53637e-06 0L 1.56438 0L 3.82403 3.8242L 3.82403 0L 5.04077 0L 5.04077 5.47945L 3.4764 5.47945L 1.1588 1.59818L 1.1588 5.47945L 3.53637e-06 5.47945L 3.53637e-06 0Z" transform="translate(110.434 44.2351)" fill="#007AC2"/>
</g>
<g id="Vector_31">
<path d="M 3.07081 1.48402C 2.95493 1.36986 2.83906 1.25571 2.66524 1.19863C 2.49142 1.14155 2.37553 1.08447 2.20171 1.08447C 2.14377 1.08447 2.0279 1.08448 1.91202 1.14155C 1.79614 1.14155 1.7382 1.19863 1.68026 1.25571C 1.62232 1.31279 1.50644 1.36986 1.50644 1.42694C 1.4485 1.48402 1.44849 1.59818 1.44849 1.71233C 1.44849 1.88356 1.50644 1.99772 1.62232 2.11187C 1.7382 2.22603 1.91202 2.28311 2.08584 2.34018C 2.25966 2.39726 2.49142 2.45434 2.66524 2.51141C 2.897 2.56849 3.07082 2.68265 3.24464 2.7968C 3.41845 2.91096 3.59228 3.08219 3.70816 3.25342C 3.82404 3.42466 3.88198 3.71005 3.88198 4.05251C 3.88198 4.3379 3.82404 4.62329 3.70816 4.8516C 3.59228 5.07991 3.47639 5.25114 3.24464 5.42238C 3.07082 5.59361 2.83905 5.70776 2.60729 5.76484C 2.37553 5.82192 2.08584 5.87899 1.79614 5.87899C 1.4485 5.87899 1.10086 5.82192 0.811161 5.70776C 0.521461 5.59361 0.231756 5.42237 -3.53637e-06 5.19406L 0.811161 4.22374C 0.92704 4.39497 1.10086 4.50913 1.27468 4.62329C 1.4485 4.73744 1.62232 4.73744 1.85408 4.73744C 1.96996 4.73744 2.0279 4.73744 2.14378 4.68036C 2.25966 4.68036 2.3176 4.62329 2.43348 4.56621C 2.54936 4.50913 2.54935 4.45205 2.60729 4.39498C 2.66523 4.3379 2.66524 4.22374 2.66524 4.16667C 2.66524 3.99543 2.60729 3.88128 2.49141 3.76712C 2.37553 3.65297 2.20171 3.59589 2.02789 3.53881C 1.85407 3.48173 1.62231 3.42466 1.44849 3.3105C 1.21673 3.25342 1.04291 3.13927 0.869095 3.02511C 0.695275 2.91096 0.521463 2.73973 0.405583 2.56849C 0.289703 2.39726 0.231761 2.11187 0.231761 1.82648C 0.231761 1.5411 0.289703 1.25571 0.405583 1.0274C 0.521463 0.799086 0.695275 0.627853 0.869095 0.45662C 1.04291 0.285387 1.27468 0.171233 1.50644 0.114155C 1.7382 0.0570776 2.0279 1.74187e-06 2.25966 1.74187e-06C 2.54936 1.74187e-06 2.83906 0.0570776 3.12876 0.114155C 3.41846 0.22831 3.65022 0.342467 3.88198 0.570778L 3.07081 1.48402Z" transform="translate(116.112 44.121)" fill="#007AC2"/>
</g>
<g id="Vector_32">
<path d="M 1.50643 1.08448L 1.76819e-06 1.08448L 1.76819e-06 0L 4.17167 0L 4.17167 1.08448L 2.66523 1.08448L 2.66523 5.47945L 1.50643 5.47945L 1.50643 1.08448Z" transform="translate(120.399 44.2351)" fill="#007AC2"/>
</g>
<g id="Vector_33">
<path d="M 2.31759 0L 3.30258 0L 5.62018 5.47945L 4.28756 5.47945L 3.82403 4.3379L 1.73819 4.3379L 1.27468 5.47945L -3.53637e-06 5.47945L 2.31759 0ZM 2.78111 1.59818L 2.14378 3.3105L 3.41846 3.3105L 2.78111 1.59818Z" transform="translate(123.934 44.2351)" fill="#007AC2"/>
</g>
<g id="Vector_34">
<path d="M 3.53637e-06 0L 1.1588 0L 1.1588 4.39498L 3.30258 4.39498L 3.30258 5.47945L 3.53637e-06 5.47945L 3.53637e-06 0Z" transform="translate(130.133 44.2351)" fill="#007AC2"/>
</g>
<g id="Vector_35">
<path d="M 0 0L 1.21674 0L 1.21674 4.39498L 3.36052 4.39498L 3.36052 5.47945L 0 5.47945L 0 0Z" transform="translate(134.131 44.2351)" fill="#007AC2"/>
</g>
<g id="Vector_36">
<path d="M 2.3176 0L 3.30257 0L 5.62017 5.47945L 4.28755 5.47945L 3.82404 4.3379L 1.7382 4.3379L 1.27468 5.47945L 0 5.47945L 2.3176 0ZM 2.72317 1.59818L 2.08584 3.3105L 3.36052 3.3105L 2.72317 1.59818Z" transform="translate(137.607 44.2351)" fill="#007AC2"/>
</g>
<g id="Vector_37">
<path d="M 1.56438 1.08448L 0 1.08448L 0 0L 4.22962 0L 4.22962 1.08448L 2.72317 1.08448L 2.72317 5.47945L 1.56438 5.47945L 1.56438 1.08448Z" transform="translate(142.532 44.2351)" fill="#007AC2"/>
</g>
<g id="Vector_38">
<path d="M -3.53637e-06 0L 3.65022 0L 3.65022 1.14155L 1.15879 1.14155L 1.15879 2.16895L 3.47639 2.16895L 3.47639 3.25342L 1.15879 3.25342L 1.15879 4.39498L 3.76609 4.39498L 3.76609 5.47945L -3.53637e-06 5.47945L -3.53637e-06 0Z" transform="translate(147.399 44.2351)" fill="#007AC2"/>
</g>
<g id="Vector_39">
<path d="M 4.40343 3.36758C 4.40343 3.71005 4.3455 3.99543 4.28756 4.28082C 4.17168 4.56621 4.05579 4.79452 3.88197 5.02283C 3.70815 5.25114 3.4764 5.3653 3.1867 5.47945C 2.897 5.59361 2.6073 5.65069 2.20172 5.65069C 1.85408 5.65069 1.50643 5.59361 1.21673 5.47945C 0.927032 5.3653 0.695283 5.19407 0.521463 5.02283C 0.347643 4.79452 0.173816 4.56621 0.115876 4.28082C -3.53983e-06 3.99543 7.07275e-06 3.71005 7.07275e-06 3.36758L 7.07275e-06 0L 1.15881 0L 1.15881 3.3105C 1.15881 3.48174 1.15879 3.65297 1.21673 3.76712C 1.27467 3.93835 1.33263 4.05251 1.44851 4.16667C 1.56439 4.28082 1.68025 4.3379 1.79613 4.39498C 1.91201 4.45205 2.08584 4.50913 2.20172 4.50913C 2.37554 4.50913 2.49142 4.45205 2.6073 4.39498C 2.72318 4.3379 2.83905 4.28082 2.95493 4.16667C 3.07081 4.05251 3.12876 3.93835 3.1867 3.76712C 3.24464 3.59589 3.24463 3.48174 3.24463 3.3105L 3.24463 0L 4.40343 0L 4.40343 3.36758Z" transform="translate(152.208 44.2351)" fill="#007AC2"/>
</g>
<g id="Vector_40">
<path d="M 3.53637e-06 0L 2.08584 0C 2.37554 0 2.6073 -8.71786e-07 2.83906 0.0570768C 3.07082 0.114154 3.30258 0.22831 3.4764 0.342465C 3.65022 0.45662 3.82403 0.627854 3.93991 0.856164C 4.05579 1.08447 4.11374 1.31279 4.11374 1.65525C 4.11374 2.0548 3.99786 2.39726 3.82404 2.62557C 3.65022 2.91096 3.36052 3.08219 2.95494 3.13927L 4.28755 5.47945L 2.897 5.47945L 1.79614 3.25342L 1.21675 3.25342L 1.21675 5.47945L 0.057947 5.47945L 0.057947 0L 3.53637e-06 0ZM 1.21675 2.2831L 1.91201 2.2831C 2.02789 2.2831 2.14378 2.2831 2.25966 2.2831C 2.37554 2.2831 2.49142 2.22603 2.6073 2.22603C 2.72318 2.16895 2.78112 2.11187 2.83906 2.05479C 2.897 1.99772 2.95494 1.88356 2.95494 1.71233C 2.95494 1.59817 2.95494 1.48402 2.897 1.36986C 2.83906 1.31279 2.78112 1.19863 2.66524 1.19863C 2.6073 1.14155 2.49142 1.14155 2.37554 1.08448C 2.25966 1.0274 2.14378 1.08448 2.0279 1.08448L 1.27467 1.08448L 1.27467 2.2831L 1.21675 2.2831Z" transform="translate(157.654 44.2351)" fill="#007AC2"/>
</g>
</g>
</g>
</svg>